<svg xmlns="http://www.w3.org/2000/svg" viewBox="0 0 960 960">
  <style>.qp-ribbon{fill:#303030}@media (prefers-color-scheme:dark){.qp-ribbon{fill:#e9edf3}}</style>
  <g transform="translate(160 32)">
    <path d="M 192 264 L 192 272 184 272 L 176 272 176 280 L 176 288 168 288 L 160 288 160 304 L 160 320 152 320 L 144 320 144 336 L 144 352 136 352 L 128 352 128 368 L 128 384 120 384 L 112 384 112 400 L 112 416 104 416 L 96 416 96 440 L 96 464 88 464 L 80 464 80 480 L 80 496 72 496 L 64 496 64 520 L 64 544 56 544 L 48 544 48 584 L 48 624 40 624 L 32 624 32 680 L 32 736 40 736 L 48 736 48 768 L 48 800 56 800 L 64 800 64 808 L 64 816 72 816 L 80 816 80 824 L 80 832 88 832 L 96 832 96 840 L 96 848 152 848 L 208 848 208 840 L 208 832 224 832 L 240 832 240 824 L 240 816 256 816 L 272 816 272 808 L 272 800 280 800 L 288 800 288 792 L 288 784 296 784 L 304 784 304 776 L 304 768 312 768 L 320 768 320 760 L 320 752 328 752 L 336 752 336 744 L 336 736 352 736 L 368 736 368 744 L 368 752 376 752 L 384 752 384 776 L 384 800 392 800 L 400 800 400 816 L 400 832 408 832 L 416 832 416 848 L 416 864 432 864 L 448 864 448 840 L 448 816 440 816 L 432 816 432 792 L 432 768 424 768 L 416 768 416 752 L 416 736 408 736 L 400 736 400 720 L 400 704 392 704 L 384 704 384 680 L 384 656 376 656 L 368 656 368 640 L 368 624 360 624 L 352 624 352 600 L 352 576 344 576 L 336 576 336 560 L 336 544 328 544 L 320 544 320 528 L 320 512 312 512 L 304 512 304 488 L 304 464 296 464 L 288 464 288 448 L 288 432 280 432 L 272 432 272 416 L 272 400 264 400 L 256 400 256 376 L 256 352 248 352 L 240 352 240 336 L 240 320 232 320 L 224 320 224 304 L 224 288 216 288 L 208 288 208 272 L 208 256 200 256 L 192 256 192 264" fill="#0070c0"/>
    <path d="M 432 40 L 432 48 416 48 L 400 48 400 56 L 400 64 384 64 L 368 64 368 72 L 368 80 360 80 L 352 80 352 88 L 352 96 344 96 L 336 96 336 104 L 336 112 328 112 L 320 112 320 120 L 320 128 312 128 L 304 128 304 136 L 304 144 296 144 L 288 144 288 152 L 288 160 280 160 L 272 160 272 168 L 272 176 264 176 L 256 176 256 184 L 256 192 248 192 L 240 192 240 200 L 240 208 232 208 L 224 208 224 232 L 224 256 232 256 L 240 256 240 280 L 240 304 248 304 L 256 304 256 320 L 256 336 264 336 L 272 336 272 360 L 272 384 280 384 L 288 384 288 400 L 288 416 296 416 L 304 416 304 432 L 304 448 312 448 L 320 448 320 472 L 320 496 328 496 L 336 496 336 512 L 336 528 344 528 L 352 528 352 544 L 352 560 360 560 L 368 560 368 584 L 368 608 376 608 L 384 608 384 624 L 384 640 392 640 L 400 640 400 656 L 400 672 408 672 L 416 672 416 696 L 416 720 424 720 L 432 720 432 736 L 432 752 440 752 L 448 752 448 768 L 448 784 456 784 L 464 784 464 808 L 464 832 472 832 L 480 832 480 840 L 480 848 488 848 L 496 848 496 832 L 496 816 488 816 L 480 816 480 800 L 480 784 472 784 L 464 784 464 760 L 464 736 456 736 L 448 736 448 720 L 448 704 440 704 L 432 704 432 680 L 432 656 424 656 L 416 656 416 648 L 416 640 424 640 L 432 640 432 632 L 432 624 440 624 L 448 624 448 648 L 448 672 456 672 L 464 672 464 688 L 464 704 472 704 L 480 704 480 720 L 480 736 488 736 L 496 736 496 760 L 496 784 504 784 L 512 784 512 800 L 512 816 520 816 L 528 816 528 832 L 528 848 544 848 L 560 848 560 832 L 560 816 552 816 L 544 816 544 800 L 544 784 536 784 L 528 784 528 768 L 528 752 520 752 L 512 752 512 736 L 512 720 504 720 L 496 720 496 696 L 496 672 488 672 L 480 672 480 656 L 480 640 472 640 L 464 640 464 624 L 464 608 456 608 L 448 608 448 592 L 448 576 456 576 L 464 576 464 568 L 464 560 472 560 L 480 560 480 544 L 480 528 488 528 L 496 528 496 512 L 496 496 504 496 L 512 496 512 480 L 512 464 520 464 L 528 464 528 448 L 528 432 536 432 L 544 432 544 416 L 544 400 552 400 L 560 400 560 376 L 560 352 568 352 L 576 352 576 328 L 576 304 584 304 L 592 304 592 264 L 592 224 600 224 L 608 224 608 176 L 608 128 600 128 L 592 128 592 104 L 592 80 584 80 L 576 80 576 72 L 576 64 568 64 L 560 64 560 56 L 560 48 552 48 L 544 48 544 40 L 544 32 488 32 L 432 32 432 40 M 432 104 L 432 112 408 112 L 384 112 384 120 L 384 128 368 128 L 352 128 352 136 L 352 144 344 144 L 336 144 336 152 L 336 160 320 160 L 304 160 304 168 L 304 176 296 176 L 288 176 288 184 L 288 192 280 192 L 272 192 272 200 L 272 208 280 208 L 288 208 288 224 L 288 240 296 240 L 304 240 304 256 L 304 272 312 272 L 320 272 320 288 L 320 304 328 304 L 336 304 336 328 L 336 352 344 352 L 352 352 352 368 L 352 384 360 384 L 368 384 368 400 L 368 416 376 416 L 384 416 384 440 L 384 464 392 464 L 400 464 400 480 L 400 496 408 496 L 416 496 416 512 L 416 528 424 528 L 432 528 432 544 L 432 560 440 560 L 448 560 448 552 L 448 544 456 544 L 464 544 464 528 L 464 512 472 512 L 480 512 480 488 L 480 464 488 464 L 496 464 496 440 L 496 416 504 416 L 512 416 512 392 L 512 368 520 368 L 528 368 528 344 L 528 320 536 320 L 544 320 544 240 L 544 160 536 160 L 528 160 528 144 L 528 128 520 128 L 512 128 512 120 L 512 112 496 112 L 480 112 480 104 L 480 96 456 96 L 432 96 432 104 M 240 240 L 240 256 248 256 L 256 256 256 272 L 256 288 264 288 L 272 288 272 304 L 272 320 280 320 L 288 320 288 344 L 288 368 296 368 L 304 368 304 384 L 304 400 312 400 L 320 400 320 416 L 320 432 328 432 L 336 432 336 456 L 336 480 344 480 L 352 480 352 496 L 352 512 360 512 L 368 512 368 528 L 368 544 376 544 L 384 544 384 568 L 384 592 392 592 L 400 592 400 600 L 400 608 416 608 L 432 608 432 600 L 432 592 424 592 L 416 592 416 576 L 416 560 408 560 L 400 560 400 536 L 400 512 392 512 L 384 512 384 496 L 384 480 376 480 L 368 480 368 464 L 368 448 360 448 L 352 448 352 432 L 352 416 344 416 L 336 416 336 392 L 336 368 328 368 L 320 368 320 352 L 320 336 312 336 L 304 336 304 320 L 304 304 296 304 L 288 304 288 280 L 288 256 280 256 L 272 256 272 240 L 272 224 256 224 L 240 224 240 240" class="qp-ribbon"/>
  </g>
</svg>